<svg width="72" height="19" viewBox="0 0 72 19" fill="none" xmlns="http://www.w3.org/2000/svg">
<path d="M69.2464 2.46903C69.6395 2.46903 69.9636 2.51713 70.2188 2.61332C70.4739 2.70951 70.6642 2.85588 70.7896 3.05245C70.9151 3.24483 70.9778 3.48948 70.9778 3.78642C70.9778 4.00389 70.936 4.19 70.8524 4.34474C70.7729 4.49948 70.6683 4.62913 70.5387 4.73369C70.409 4.83406 70.2689 4.91561 70.1184 4.97834L71.4044 6.94815H70.5011L69.4283 5.17909H68.7759V6.94815H67.9729V2.46903H69.2464ZM69.1962 3.14027H68.7759V4.52039H69.2213C69.443 4.52039 69.6228 4.49321 69.7608 4.43884C69.8988 4.38447 69.9992 4.30501 70.0619 4.20046C70.1288 4.0959 70.1623 3.96625 70.1623 3.81151C70.1623 3.64841 70.1267 3.51876 70.0556 3.42257C69.9845 3.3222 69.8779 3.2511 69.7357 3.20928C69.5977 3.16327 69.4179 3.14027 69.1962 3.14027Z" fill="white" fill-opacity="0.8"/>
<path d="M66.4545 4.70232C66.4545 5.04944 66.4106 5.3652 66.3228 5.64958C66.2392 5.92979 66.1095 6.17236 65.9339 6.37728C65.7624 6.58221 65.5428 6.73904 65.2752 6.84778C65.0117 6.95652 64.7022 7.01089 64.3467 7.01089C63.987 7.01089 63.6734 6.95652 63.4057 6.84778C63.1422 6.73486 62.9248 6.57803 62.7533 6.37728C62.5818 6.17236 62.4522 5.9277 62.3644 5.64331C62.2807 5.35892 62.2389 5.04317 62.2389 4.69604C62.2389 4.23182 62.3142 3.82824 62.4647 3.4853C62.6195 3.14236 62.8516 2.87679 63.1611 2.6886C63.4747 2.49621 63.872 2.40002 64.353 2.40002C64.8256 2.40002 65.2166 2.49621 65.5261 2.6886C65.8356 2.87679 66.0677 3.14445 66.2224 3.49158C66.3772 3.83451 66.4545 4.2381 66.4545 4.70232ZM63.0858 4.70232C63.0858 5.04108 63.1297 5.33174 63.2175 5.5743C63.3095 5.81687 63.4475 6.00298 63.6316 6.13263C63.8198 6.26227 64.0581 6.3271 64.3467 6.3271C64.6437 6.3271 64.8841 6.26227 65.0681 6.13263C65.2522 6.00298 65.3881 5.81687 65.4759 5.5743C65.5637 5.33174 65.6076 5.04108 65.6076 4.70232C65.6076 4.19627 65.5094 3.79897 65.3128 3.51039C65.1162 3.22182 64.7963 3.07754 64.353 3.07754C64.0602 3.07754 63.8198 3.14236 63.6316 3.27201C63.4475 3.40166 63.3095 3.58777 63.2175 3.83033C63.1297 4.0729 63.0858 4.36356 63.0858 4.70232Z" fill="white" fill-opacity="0.8"/>
<path d="M59.3025 6.94815H58.512V2.46903H61.0527V3.14027H59.3025V4.45766H60.9335V5.1289H59.3025V6.94815Z" fill="white" fill-opacity="0.8"/>
<path d="M54.9076 5.72486C54.9076 5.98834 54.8428 6.21627 54.7131 6.40865C54.5835 6.60103 54.3953 6.7495 54.1485 6.85405C53.906 6.95861 53.6153 7.01089 53.2765 7.01089C53.1134 7.01089 52.9566 7.00043 52.806 6.97952C52.6597 6.96279 52.5196 6.93561 52.3857 6.89797C52.2561 6.86033 52.1348 6.81432 52.0219 6.75995V6.00716C52.2101 6.0908 52.4171 6.16817 52.6429 6.23927C52.8688 6.30619 53.0988 6.33964 53.333 6.33964C53.5128 6.33964 53.6592 6.31664 53.7721 6.27064C53.8892 6.22045 53.975 6.15354 54.0293 6.06989C54.0837 5.98207 54.1109 5.8817 54.1109 5.76878C54.1109 5.64331 54.0753 5.53666 54.0042 5.44884C53.9331 5.36101 53.8286 5.27946 53.6906 5.20418C53.5526 5.1289 53.3811 5.04944 53.1762 4.9658C53.0381 4.90725 52.9022 4.84242 52.7684 4.77132C52.6387 4.69604 52.5216 4.60613 52.4171 4.50157C52.3125 4.39702 52.2289 4.27364 52.1662 4.13145C52.1034 3.98926 52.0721 3.82197 52.0721 3.62959C52.0721 3.37447 52.1327 3.15491 52.254 2.97089C52.3794 2.78688 52.553 2.64677 52.7747 2.55058C53.0005 2.45439 53.2619 2.4063 53.5588 2.4063C53.7972 2.4063 54.021 2.43139 54.2301 2.48158C54.4392 2.53176 54.6462 2.60286 54.8511 2.69487L54.5939 3.34102C54.4099 3.26155 54.2322 3.19882 54.0607 3.15282C53.8892 3.10681 53.7136 3.08381 53.5337 3.08381C53.3915 3.08381 53.2703 3.10681 53.1699 3.15282C53.0695 3.19464 52.9942 3.25528 52.944 3.33474C52.8939 3.4142 52.8688 3.50621 52.8688 3.61077C52.8688 3.73205 52.9001 3.83451 52.9629 3.91816C53.0256 4.0018 53.1218 4.08126 53.2514 4.15654C53.3853 4.22764 53.5567 4.30919 53.7658 4.4012C54.0084 4.50576 54.2133 4.61449 54.3806 4.72741C54.5479 4.84033 54.6776 4.97625 54.7696 5.13517C54.8616 5.2941 54.9076 5.49066 54.9076 5.72486Z" fill="white" fill-opacity="0.8"/>
<path d="M50.8939 5.72486C50.8939 5.98834 50.8291 6.21627 50.6994 6.40865C50.5698 6.60103 50.3816 6.7495 50.1348 6.85405C49.8923 6.95861 49.6016 7.01089 49.2629 7.01089C49.0998 7.01089 48.9429 7.00043 48.7924 6.97952C48.646 6.96279 48.5059 6.93561 48.372 6.89797C48.2424 6.86033 48.1211 6.81432 48.0082 6.75995V6.00716C48.1964 6.0908 48.4034 6.16817 48.6293 6.23927C48.8551 6.30619 49.0851 6.33964 49.3193 6.33964C49.4992 6.33964 49.6455 6.31664 49.7584 6.27064C49.8755 6.22045 49.9613 6.15354 50.0156 6.06989C50.07 5.98207 50.0972 5.8817 50.0972 5.76878C50.0972 5.64331 50.0617 5.53666 49.9906 5.44884C49.9195 5.36101 49.8149 5.27946 49.6769 5.20418C49.5389 5.1289 49.3674 5.04944 49.1625 4.9658C49.0245 4.90725 48.8886 4.84242 48.7547 4.77132C48.6251 4.69604 48.508 4.60613 48.4034 4.50157C48.2989 4.39702 48.2152 4.27364 48.1525 4.13145C48.0898 3.98926 48.0584 3.82197 48.0584 3.62959C48.0584 3.37447 48.119 3.15491 48.2403 2.97089C48.3658 2.78688 48.5393 2.64677 48.761 2.55058C48.9868 2.45439 49.2482 2.4063 49.5452 2.4063C49.7835 2.4063 50.0073 2.43139 50.2164 2.48158C50.4255 2.53176 50.6325 2.60286 50.8375 2.69487L50.5802 3.34102C50.3962 3.26155 50.2185 3.19882 50.047 3.15282C49.8755 3.10681 49.6999 3.08381 49.5201 3.08381C49.3779 3.08381 49.2566 3.10681 49.1562 3.15282C49.0558 3.19464 48.9806 3.25528 48.9304 3.33474C48.8802 3.4142 48.8551 3.50621 48.8551 3.61077C48.8551 3.73205 48.8865 3.83451 48.9492 3.91816C49.0119 4.0018 49.1081 4.08126 49.2378 4.15654C49.3716 4.22764 49.5431 4.30919 49.7522 4.4012C49.9947 4.50576 50.1997 4.61449 50.367 4.72741C50.5342 4.84033 50.6639 4.97625 50.7559 5.13517C50.8479 5.2941 50.8939 5.49066 50.8939 5.72486Z" fill="white" fill-opacity="0.8"/>
<path d="M46.7748 6.94815H44.2278V2.46903H46.7748V3.14027H45.0308V4.28201H46.6618V4.95325H45.0308V6.27064H46.7748V6.94815Z" fill="white" fill-opacity="0.8"/>
<path d="M40.2141 6.94815V2.46903H41.0171V6.27064H42.8866V6.94815H40.2141Z" fill="white" fill-opacity="0.8"/>
<path d="M34.9864 4.44511L36.009 2.46903H36.8747L35.3879 5.20418V6.94815H34.5849V5.23555L33.0982 2.46903H33.9702L34.9864 4.44511Z" fill="white" fill-opacity="0.8"/>
<path d="M32.0485 6.94815L31.6407 5.7625H29.9532L29.5517 6.94815H28.6986L30.3422 2.45021H31.2581L32.9017 6.94815H32.0485ZM31.0448 3.91816C31.028 3.85961 31.0029 3.78015 30.9695 3.67977C30.936 3.5794 30.9026 3.47694 30.8691 3.37238C30.8398 3.26365 30.8168 3.17373 30.8001 3.10263C30.7792 3.18628 30.752 3.28247 30.7185 3.3912C30.6893 3.49994 30.66 3.6024 30.6307 3.69859C30.6056 3.79478 30.5847 3.86797 30.568 3.91816L30.1728 5.07244H31.4337L31.0448 3.91816Z" fill="white" fill-opacity="0.8"/>
<path d="M26.482 2.46903C27.0633 2.46903 27.4857 2.59031 27.7492 2.83288C28.0168 3.07545 28.1507 3.41002 28.1507 3.83661C28.1507 4.02899 28.1214 4.213 28.0628 4.38865C28.0043 4.56012 27.906 4.71487 27.768 4.85288C27.63 4.99089 27.4481 5.09963 27.2222 5.17909C27.0006 5.25855 26.7245 5.29828 26.3942 5.29828H25.9487V6.94815H25.1458V2.46903H26.482ZM26.4318 3.134H25.9487V4.63331H26.3126C26.5301 4.63331 26.7141 4.60822 26.8646 4.55803C27.0194 4.50366 27.1365 4.42002 27.216 4.3071C27.2954 4.19418 27.3351 4.04781 27.3351 3.86797C27.3351 3.62122 27.262 3.43721 27.1156 3.31592C26.9692 3.19464 26.7413 3.134 26.4318 3.134Z" fill="white" fill-opacity="0.8"/>
<path d="M71.1783 17.055H67.109V10.0875H71.1783V11.4342H68.768V12.7711H71.0027V14.1177H68.768V15.6889H71.1783V17.055Z" fill="white"/>
<path d="M62.1962 13.0638H65.075V16.7428C64.7106 16.8664 64.3138 16.9672 63.8844 17.0453C63.4616 17.1168 62.9997 17.1526 62.4987 17.1526C61.8156 17.1526 61.2269 17.0193 60.7324 16.7525C60.238 16.4858 59.8574 16.0857 59.5907 15.5522C59.3305 15.0188 59.2004 14.3552 59.2004 13.5615C59.2004 12.8329 59.3402 12.2018 59.62 11.6684C59.8997 11.1349 60.3096 10.7218 60.8495 10.4291C61.396 10.1363 62.0628 9.98992 62.85 9.98992C63.2469 9.98992 63.6307 10.029 64.0015 10.107C64.3788 10.1851 64.7106 10.2892 64.9969 10.4193L64.4602 11.7367C64.2325 11.6196 63.982 11.5285 63.7088 11.4634C63.4355 11.3984 63.1493 11.3659 62.85 11.3659C62.4272 11.3659 62.0694 11.4634 61.7766 11.6586C61.4903 11.8473 61.2757 12.1108 61.1325 12.4491C60.9894 12.7808 60.9179 13.1614 60.9179 13.5908C60.9179 14.0397 60.9797 14.4268 61.1033 14.752C61.2269 15.0773 61.4123 15.331 61.6595 15.5132C61.9132 15.6889 62.2352 15.7767 62.6256 15.7767C62.7362 15.7767 62.8435 15.7734 62.9476 15.7669C63.0517 15.7539 63.1493 15.7409 63.2404 15.7279C63.3314 15.7149 63.4128 15.7019 63.4843 15.6889V14.4007H62.1962V13.0638Z" fill="white"/>
<path d="M56.551 17.055L56.1216 15.562H53.7112L53.2819 17.055H51.4668L53.8381 10.0582H55.9654L58.366 17.055H56.551ZM55.3409 12.7808C55.3084 12.6637 55.2628 12.5076 55.2043 12.3124C55.1522 12.1108 55.0969 11.9058 55.0384 11.6977C54.9864 11.4895 54.9441 11.3138 54.9115 11.1707C54.8855 11.3138 54.8432 11.4927 54.7847 11.7074C54.7326 11.9156 54.6806 12.1205 54.6285 12.3222C54.5765 12.5174 54.5342 12.6702 54.5017 12.7808L54.0918 14.1763H55.7508L55.3409 12.7808Z" fill="white"/>
<path d="M47.4271 10.0875C48.0582 10.0875 48.5786 10.1656 48.9885 10.3217C49.4048 10.4713 49.7171 10.7023 49.9253 11.0146C50.1335 11.3203 50.2375 11.7042 50.2375 12.1661C50.2375 12.4653 50.1823 12.732 50.0717 12.9662C49.9611 13.2005 49.8114 13.4054 49.6228 13.581C49.4406 13.7567 49.2292 13.9031 48.9885 14.0202L51.028 17.055H49.1641L47.593 14.4398H46.9392V17.055H45.2803V10.0875H47.4271ZM47.3588 11.3951H46.9392V13.1419H47.3588C47.6255 13.1419 47.8467 13.1126 48.0224 13.0541C48.198 12.989 48.3281 12.8882 48.4127 12.7516C48.5038 12.6084 48.5493 12.4328 48.5493 12.2246C48.5493 12.0359 48.5071 11.8831 48.4225 11.766C48.3379 11.6424 48.2078 11.5513 48.0321 11.4927C47.8565 11.4277 47.632 11.3951 47.3588 11.3951Z" fill="white"/>
<path d="M43.4369 13.5615C43.4369 14.1015 43.3719 14.5927 43.2417 15.035C43.1116 15.4709 42.91 15.8482 42.6367 16.167C42.3635 16.4858 42.0154 16.7298 41.5926 16.8989C41.1697 17.068 40.6688 17.1526 40.0898 17.1526C39.5173 17.1526 39.0196 17.068 38.5967 16.8989C38.1739 16.7232 37.8258 16.4793 37.5526 16.167C37.2793 15.8482 37.0744 15.4677 36.9378 15.0253C36.8077 14.5829 36.7426 14.0917 36.7426 13.5518C36.7426 12.8296 36.8597 12.2018 37.0939 11.6684C37.3346 11.1349 37.7022 10.7218 38.1966 10.4291C38.6976 10.1298 39.3319 9.98017 40.0995 9.98017C40.8737 9.98017 41.5047 10.1298 41.9927 10.4291C42.4871 10.7218 42.8514 11.1382 43.0856 11.6781C43.3198 12.2116 43.4369 12.8394 43.4369 13.5615ZM38.4894 13.5615C38.4894 14.0169 38.5447 14.4105 38.6553 14.7423C38.7659 15.0676 38.9383 15.318 39.1725 15.4937C39.4132 15.6693 39.7189 15.7572 40.0898 15.7572C40.4736 15.7572 40.7826 15.6693 41.0168 15.4937C41.251 15.318 41.4202 15.0676 41.5243 14.7423C41.6348 14.4105 41.6901 14.0169 41.6901 13.5615C41.6901 12.8719 41.5665 12.332 41.3193 11.9416C41.0786 11.5513 40.672 11.3561 40.0995 11.3561C39.7222 11.3561 39.4132 11.4472 39.1725 11.6293C38.9383 11.805 38.7659 12.0587 38.6553 12.3905C38.5447 12.7158 38.4894 13.1061 38.4894 13.5615Z" fill="white"/>
<path d="M33.8792 17.055H32.2203V11.4634H30.415V10.0875H35.6845V11.4634H33.8792V17.055Z" fill="white"/>
<path d="M29.3466 15.035C29.3466 15.4319 29.2491 15.7929 29.0539 16.1182C28.8587 16.437 28.566 16.6907 28.1756 16.8794C27.7853 17.0615 27.2941 17.1526 26.7021 17.1526C26.4289 17.1526 26.1751 17.1364 25.9409 17.1038C25.7067 17.0713 25.4823 17.0258 25.2676 16.9672C25.0594 16.9022 24.8545 16.8208 24.6528 16.7232V15.2107C25.0041 15.3733 25.3619 15.5099 25.7263 15.6205C26.0971 15.7311 26.4516 15.7864 26.7899 15.7864C27.0046 15.7864 27.177 15.7604 27.3071 15.7084C27.4437 15.6498 27.5413 15.575 27.5999 15.4839C27.6649 15.3863 27.6975 15.2757 27.6975 15.1521C27.6975 15.0025 27.6454 14.8756 27.5413 14.7716C27.4437 14.661 27.2974 14.5569 27.1022 14.4593C26.907 14.3552 26.6696 14.2381 26.3898 14.108C26.1817 14.0169 25.9767 13.9128 25.7751 13.7957C25.5799 13.6721 25.401 13.5322 25.2383 13.3761C25.0822 13.2135 24.9553 13.0215 24.8578 12.8004C24.7667 12.5727 24.7211 12.3059 24.7211 12.0002C24.7211 11.5643 24.822 11.2 25.0237 10.9072C25.2318 10.608 25.5213 10.3803 25.8922 10.2241C26.263 10.068 26.6989 9.98992 27.1998 9.98992C27.6096 9.98992 27.987 10.0355 28.3318 10.1265C28.6766 10.2176 29.0116 10.3347 29.3369 10.4778L28.8099 11.7757C28.4977 11.6391 28.2049 11.535 27.9317 11.4634C27.6649 11.3854 27.4047 11.3463 27.151 11.3463C26.9753 11.3463 26.829 11.3724 26.7119 11.4244C26.5948 11.47 26.5069 11.5383 26.4484 11.6293C26.3898 11.7139 26.3606 11.8148 26.3606 11.9319C26.3606 12.0685 26.4061 12.1888 26.4972 12.2929C26.5883 12.3905 26.7314 12.4913 26.9265 12.5954C27.1217 12.6995 27.3787 12.8264 27.6975 12.976C28.0423 13.1321 28.3383 13.3013 28.5855 13.4834C28.8327 13.6656 29.0214 13.8803 29.1515 14.1275C29.2816 14.3682 29.3466 14.6707 29.3466 15.035Z" fill="white"/>
<path d="M4.90995 0.664185L0.354004 5.22013V9.77608H4.90995L9.4659 5.22013V0.664185H4.90995Z" fill="white" fill-opacity="0.8"/>
<path d="M14.0219 0.664307L9.46594 5.22026V9.77621H14.0219L18.5778 5.22026V0.664307H14.0219Z" fill="white" fill-opacity="0.4"/>
<path d="M14.0219 9.77625L9.46594 14.3322V18.8881H14.0219L18.5778 14.3322V9.77625H14.0219Z" fill="white" fill-opacity="0.4"/>
<path d="M4.90995 9.77625L0.354004 14.3322V18.8881H4.90995L9.4659 14.3322V9.77625H4.90995Z" fill="white" fill-opacity="0.8"/>
</svg>
