<svg width="124" height="32" viewBox="0 0 124 32" fill="none" xmlns="http://www.w3.org/2000/svg">
<path d="M120.233 3.16902C120.919 3.16902 121.485 3.25348 121.93 3.42238C122.376 3.59128 122.708 3.84831 122.927 4.19347C123.146 4.53128 123.255 4.96088 123.255 5.48229C123.255 5.86416 123.182 6.19095 123.036 6.46267C122.898 6.73439 122.715 6.96204 122.489 7.14563C122.263 7.32188 122.018 7.46508 121.755 7.57524L124 11.0341H122.423L120.551 7.92774H119.412V11.0341H118.011V3.16902H120.233ZM120.146 4.34769H119.412V6.77111H120.19C120.576 6.77111 120.89 6.72337 121.131 6.6279C121.372 6.53244 121.547 6.3929 121.657 6.20931C121.773 6.02572 121.832 5.79807 121.832 5.52635C121.832 5.23994 121.77 5.01229 121.646 4.84339C121.522 4.66714 121.336 4.54229 121.087 4.46886C120.847 4.38808 120.533 4.34769 120.146 4.34769Z" fill="white" fill-opacity="0.8"/>
<path d="M115.361 7.09056C115.361 7.70008 115.284 8.25453 115.131 8.7539C114.985 9.24593 114.759 9.67186 114.452 10.0317C114.153 10.3915 113.77 10.6669 113.303 10.8579C112.843 11.0488 112.303 11.1443 111.682 11.1443C111.054 11.1443 110.507 11.0488 110.04 10.8579C109.58 10.6596 109.201 10.3842 108.901 10.0317C108.602 9.67186 108.376 9.24226 108.222 8.74289C108.077 8.24352 108.004 7.68907 108.004 7.07954C108.004 6.26439 108.135 5.55572 108.398 4.95354C108.668 4.35136 109.073 3.88503 109.613 3.55457C110.16 3.21676 110.854 3.04785 111.693 3.04785C112.518 3.04785 113.2 3.21676 113.741 3.55457C114.281 3.88503 114.686 4.35503 114.956 4.96456C115.226 5.56674 115.361 6.27541 115.361 7.09056ZM109.482 7.09056C109.482 7.6854 109.558 8.19578 109.711 8.62172C109.872 9.04765 110.113 9.37444 110.434 9.6021C110.763 9.82975 111.179 9.94358 111.682 9.94358C112.2 9.94358 112.62 9.82975 112.941 9.6021C113.262 9.37444 113.5 9.04765 113.653 8.62172C113.806 8.19578 113.883 7.6854 113.883 7.09056C113.883 6.20197 113.711 5.50432 113.368 4.9976C113.025 4.49089 112.467 4.23753 111.693 4.23753C111.182 4.23753 110.763 4.35136 110.434 4.57901C110.113 4.80667 109.872 5.13346 109.711 5.5594C109.558 5.98533 109.482 6.49572 109.482 7.09056Z" fill="white" fill-opacity="0.8"/>
<path d="M102.879 11.0341H101.499V3.16902H105.933V4.34769H102.879V6.66095H105.725V7.83961H102.879V11.0341Z" fill="white" fill-opacity="0.8"/>
<path d="M95.2085 8.88609C95.2085 9.34874 95.0954 9.74897 94.8691 10.0868C94.6428 10.4246 94.3144 10.6853 93.8838 10.8689C93.4604 11.0525 92.9531 11.1443 92.3619 11.1443C92.0772 11.1443 91.8035 11.1259 91.5408 11.0892C91.2853 11.0598 91.0408 11.0121 90.8072 10.946C90.581 10.8799 90.3693 10.7991 90.1722 10.7037V9.38179C90.5007 9.52866 90.862 9.66452 91.2561 9.78936C91.6503 9.90686 92.0517 9.96561 92.4604 9.96561C92.7743 9.96561 93.0298 9.92522 93.2268 9.84444C93.4312 9.75632 93.5808 9.63882 93.6757 9.49194C93.7706 9.33773 93.8181 9.16148 93.8181 8.9632C93.8181 8.74289 93.756 8.55562 93.6319 8.40141C93.5079 8.24719 93.3254 8.10399 93.0845 7.9718C92.8436 7.83961 92.5444 7.70008 92.1867 7.55321C91.9459 7.4504 91.7086 7.33657 91.4751 7.21173C91.2488 7.07954 91.0444 6.92165 90.862 6.73806C90.6795 6.55447 90.5335 6.33783 90.424 6.08814C90.3145 5.83846 90.2598 5.54471 90.2598 5.2069C90.2598 4.75893 90.3656 4.37339 90.5773 4.05027C90.7963 3.72714 91.0992 3.48113 91.486 3.31222C91.8802 3.14332 92.3364 3.05887 92.8546 3.05887C93.2706 3.05887 93.6611 3.10293 94.0261 3.19105C94.391 3.27918 94.7523 3.40402 95.11 3.56558L94.6611 4.70018C94.3399 4.56065 94.0297 4.4505 93.7305 4.36972C93.4312 4.28894 93.1247 4.24855 92.8108 4.24855C92.5626 4.24855 92.351 4.28894 92.1758 4.36972C92.0006 4.44315 91.8692 4.54964 91.7816 4.68917C91.694 4.8287 91.6503 4.99026 91.6503 5.17385C91.6503 5.38682 91.705 5.56674 91.8145 5.71361C91.924 5.86049 92.0918 6.00002 92.3181 6.1322C92.5517 6.25705 92.8509 6.40025 93.2159 6.56181C93.6392 6.7454 93.9969 6.93634 94.2888 7.13462C94.5808 7.3329 94.8071 7.57157 94.9676 7.85063C95.1282 8.12969 95.2085 8.47484 95.2085 8.88609Z" fill="white" fill-opacity="0.8"/>
<path d="M88.2036 8.88609C88.2036 9.34874 88.0905 9.74897 87.8642 10.0868C87.638 10.4246 87.3095 10.6853 86.8789 10.8689C86.4555 11.0525 85.9482 11.1443 85.357 11.1443C85.0724 11.1443 84.7987 11.1259 84.5359 11.0892C84.2804 11.0598 84.0359 11.0121 83.8023 10.946C83.5761 10.8799 83.3644 10.7991 83.1673 10.7037V9.38179C83.4958 9.52866 83.8571 9.66452 84.2512 9.78936C84.6454 9.90686 85.0468 9.96561 85.4556 9.96561C85.7694 9.96561 86.0249 9.92522 86.222 9.84444C86.4263 9.75632 86.576 9.63882 86.6708 9.49194C86.7657 9.33773 86.8132 9.16148 86.8132 8.9632C86.8132 8.74289 86.7511 8.55562 86.6271 8.40141C86.503 8.24719 86.3205 8.10399 86.0796 7.9718C85.8388 7.83961 85.5395 7.70008 85.1819 7.55321C84.941 7.4504 84.7038 7.33657 84.4702 7.21173C84.2439 7.07954 84.0396 6.92165 83.8571 6.73806C83.6746 6.55447 83.5286 6.33783 83.4191 6.08814C83.3097 5.83846 83.2549 5.54471 83.2549 5.2069C83.2549 4.75893 83.3608 4.37339 83.5724 4.05027C83.7914 3.72714 84.0943 3.48113 84.4811 3.31222C84.8753 3.14332 85.3315 3.05887 85.8497 3.05887C86.2657 3.05887 86.6562 3.10293 87.0212 3.19105C87.3861 3.27918 87.7474 3.40402 88.1051 3.56558L87.6562 4.70018C87.3351 4.56065 87.0248 4.4505 86.7256 4.36972C86.4263 4.28894 86.1198 4.24855 85.8059 4.24855C85.5577 4.24855 85.3461 4.28894 85.1709 4.36972C84.9957 4.44315 84.8643 4.54964 84.7768 4.68917C84.6892 4.8287 84.6454 4.99026 84.6454 5.17385C84.6454 5.38682 84.7001 5.56674 84.8096 5.71361C84.9191 5.86049 85.087 6.00002 85.3132 6.1322C85.5468 6.25705 85.8461 6.40025 86.211 6.56181C86.6343 6.7454 86.992 6.93634 87.284 7.13462C87.5759 7.3329 87.8022 7.57157 87.9628 7.85063C88.1233 8.12969 88.2036 8.47484 88.2036 8.88609Z" fill="white" fill-opacity="0.8"/>
<path d="M81.0147 11.0341H76.5696V3.16902H81.0147V4.34769H77.971V6.35251H80.8176V7.53118H77.971V9.84444H81.0147V11.0341Z" fill="white" fill-opacity="0.8"/>
<path d="M69.5647 11.0341V3.16902H70.9661V9.84444H74.2287V11.0341H69.5647Z" fill="white" fill-opacity="0.8"/>
<path d="M60.441 6.63892L62.2256 3.16902H63.7365L61.1417 7.9718V11.0341H59.7403V8.02688L57.1455 3.16902H58.6674L60.441 6.63892Z" fill="white" fill-opacity="0.8"/>
<path d="M55.3136 11.0341L54.6019 8.95218H51.6568L50.9561 11.0341H49.4671L52.3356 3.13598H53.934L56.8025 11.0341H55.3136ZM53.5618 5.71361C53.5326 5.6108 53.4888 5.47127 53.4304 5.29502C53.372 5.11877 53.3136 4.93885 53.2552 4.75526C53.2041 4.56432 53.164 4.40644 53.1348 4.28159C53.0983 4.42847 53.0509 4.59737 52.9925 4.78831C52.9414 4.97924 52.8903 5.15916 52.8392 5.32807C52.7954 5.49697 52.7589 5.62549 52.7297 5.71361L52.04 7.74047H54.2406L53.5618 5.71361Z" fill="white" fill-opacity="0.8"/>
<path d="M45.5986 3.16902C46.6131 3.16902 47.3503 3.38199 47.8102 3.80792C48.2773 4.23386 48.5109 4.82135 48.5109 5.57041C48.5109 5.90822 48.4598 6.23134 48.3576 6.53978C48.2554 6.84087 48.0839 7.11259 47.843 7.35493C47.6021 7.59727 47.2846 7.78821 46.8905 7.92774C46.5036 8.06727 46.0219 8.13703 45.4453 8.13703H44.668V11.0341H43.2665V3.16902H45.5986ZM45.511 4.33667H44.668V6.96938H45.303C45.6825 6.96938 46.0037 6.92532 46.2664 6.8372C46.5365 6.74173 46.7409 6.59486 46.8795 6.39658C47.0182 6.1983 47.0876 5.94127 47.0876 5.62549C47.0876 5.19221 46.9598 4.86909 46.7044 4.65612C46.4489 4.44315 46.0511 4.33667 45.511 4.33667Z" fill="white" fill-opacity="0.8"/>
<path d="M123.605 28.7813H116.503V16.5467H123.605V18.9113H119.398V21.2589H123.299V23.6235H119.398V26.3823H123.605V28.7813Z" fill="white"/>
<path d="M107.929 21.7729H112.953V28.2329C112.317 28.45 111.625 28.627 110.875 28.7641C110.137 28.8898 109.331 28.9526 108.457 28.9526C107.265 28.9526 106.237 28.7184 105.374 28.2501C104.511 27.7817 103.847 27.0792 103.382 26.1424C102.928 25.2057 102.701 24.0405 102.701 22.6468C102.701 21.3674 102.945 20.2593 103.433 19.3226C103.921 18.3858 104.636 17.6605 105.579 17.1464C106.532 16.6323 107.696 16.3753 109.07 16.3753C109.763 16.3753 110.433 16.4438 111.08 16.5809C111.738 16.718 112.317 16.9008 112.817 17.1293L111.88 19.4425C111.483 19.2369 111.046 19.077 110.569 18.9627C110.092 18.8485 109.592 18.7914 109.07 18.7914C108.332 18.7914 107.708 18.9627 107.197 19.3054C106.697 19.6367 106.322 20.0994 106.073 20.6934C105.823 21.276 105.698 21.9443 105.698 22.6982C105.698 23.4865 105.806 24.1662 106.022 24.7373C106.237 25.3085 106.561 25.754 106.992 26.0739C107.435 26.3823 107.997 26.5365 108.678 26.5365C108.871 26.5365 109.059 26.5308 109.24 26.5194C109.422 26.4966 109.592 26.4737 109.751 26.4509C109.91 26.428 110.052 26.4052 110.177 26.3823V24.1205H107.929V21.7729Z" fill="white"/>
<path d="M98.0766 28.7813L97.3273 26.1596H93.1206L92.3712 28.7813H89.2035L93.342 16.4953H97.0548L101.244 28.7813H98.0766ZM95.9648 21.276C95.908 21.0704 95.8285 20.7962 95.7263 20.4535C95.6355 20.0994 95.539 19.7395 95.4368 19.374C95.346 19.0084 95.2722 18.7 95.2154 18.4487C95.17 18.7 95.0962 19.0141 94.994 19.3911C94.9032 19.7567 94.8123 20.1165 94.7215 20.4706C94.6307 20.8133 94.5569 21.0818 94.5001 21.276L93.7848 23.7263H96.6801L95.9648 21.276Z" fill="white"/>
<path d="M82.1532 16.5467C83.2545 16.5467 84.1628 16.6837 84.8781 16.9579C85.6048 17.2206 86.1498 17.6262 86.5131 18.1745C86.8764 18.7114 87.0581 19.3854 87.0581 20.1965C87.0581 20.722 86.9616 21.1903 86.7686 21.6016C86.5756 22.0128 86.3144 22.3727 85.9852 22.6811C85.6672 22.9895 85.2982 23.2466 84.8781 23.4522L88.4376 28.7813H85.1847L82.4427 24.189H81.3016V28.7813H78.4064V16.5467H82.1532ZM82.034 18.8428H81.3016V21.91H82.034C82.4995 21.91 82.8855 21.8586 83.1921 21.7558C83.4986 21.6416 83.7257 21.4645 83.8733 21.2246C84.0323 20.9733 84.1118 20.6648 84.1118 20.2993C84.1118 19.968 84.038 19.6996 83.8904 19.4939C83.7427 19.2769 83.5157 19.117 83.2091 19.0141C82.9025 18.8999 82.5108 18.8428 82.034 18.8428Z" fill="white"/>
<path d="M75.1893 22.6468C75.1893 23.595 75.0757 24.4575 74.8486 25.2343C74.6216 25.9996 74.2696 26.6622 73.7927 27.2219C73.3158 27.7817 72.7084 28.2101 71.9704 28.5071C71.2324 28.8041 70.3581 28.9526 69.3476 28.9526C68.3485 28.9526 67.4799 28.8041 66.7419 28.5071C66.0039 28.1987 65.3965 27.7703 64.9196 27.2219C64.4427 26.6622 64.0851 25.9939 63.8466 25.2171C63.6196 24.4403 63.506 23.5778 63.506 22.6297C63.506 21.3617 63.7104 20.2593 64.1191 19.3226C64.5392 18.3858 65.1807 17.6605 66.0436 17.1464C66.9179 16.6209 68.0249 16.3582 69.3647 16.3582C70.7158 16.3582 71.8171 16.6209 72.6687 17.1464C73.5316 17.6605 74.1674 18.3916 74.5761 19.3397C74.9849 20.2764 75.1893 21.3788 75.1893 22.6468ZM66.5546 22.6468C66.5546 23.4465 66.6511 24.1376 66.8441 24.7202C67.0371 25.2914 67.338 25.7312 67.7467 26.0396C68.1668 26.348 68.7005 26.5023 69.3476 26.5023C70.0175 26.5023 70.5568 26.348 70.9656 26.0396C71.3743 25.7312 71.6695 25.2914 71.8512 24.7202C72.0442 24.1376 72.1407 23.4465 72.1407 22.6468C72.1407 21.4359 71.925 20.4878 71.4935 19.8024C71.0734 19.117 70.3638 18.7743 69.3647 18.7743C68.7061 18.7743 68.1668 18.9342 67.7467 19.254C67.338 19.5625 67.0371 20.008 66.8441 20.5906C66.6511 21.1618 66.5546 21.8472 66.5546 22.6468Z" fill="white"/>
<path d="M58.5086 28.7813H55.6134V18.9627H52.4626V16.5467H61.6594V18.9627H58.5086V28.7813Z" fill="white"/>
<path d="M50.5981 25.2342C50.5981 25.9311 50.4278 26.5651 50.0872 27.1363C49.7466 27.696 49.2357 28.1415 48.5544 28.4728C47.8732 28.7927 47.016 28.9526 45.9828 28.9526C45.5059 28.9526 45.0631 28.9241 44.6543 28.8669C44.2456 28.8098 43.8539 28.7298 43.4792 28.627C43.1159 28.5128 42.7582 28.37 42.4062 28.1987V25.5427C43.0194 25.8283 43.6438 26.0682 44.2797 26.2624C44.9268 26.4566 45.5456 26.5537 46.136 26.5537C46.5107 26.5537 46.8116 26.508 47.0387 26.4166C47.2771 26.3138 47.4474 26.1824 47.5496 26.0225C47.6631 25.8511 47.7199 25.6569 47.7199 25.4399C47.7199 25.1771 47.6291 24.9544 47.4474 24.7716C47.2771 24.5774 47.0216 24.3946 46.681 24.2233C46.3404 24.0405 45.926 23.8349 45.4378 23.6064C45.0744 23.4465 44.7168 23.2637 44.3648 23.0581C44.0242 22.841 43.712 22.5954 43.4281 22.3213C43.1556 22.0357 42.9342 21.6987 42.7639 21.3103C42.6049 20.9104 42.5255 20.4421 42.5255 19.9052C42.5255 19.1398 42.7015 18.5001 43.0534 17.986C43.4168 17.4605 43.922 17.0607 44.5692 16.7866C45.2164 16.5124 45.9771 16.3753 46.8513 16.3753C47.5666 16.3753 48.2252 16.4553 48.8269 16.6152C49.4287 16.7751 50.0134 16.9808 50.5811 17.2321L49.6614 19.5111C49.1164 19.2712 48.6055 19.0884 48.1287 18.9627C47.6631 18.8257 47.209 18.7571 46.7662 18.7571C46.4596 18.7571 46.2042 18.8028 45.9998 18.8942C45.7954 18.9742 45.6421 19.0941 45.5399 19.254C45.4378 19.4025 45.3867 19.5796 45.3867 19.7852C45.3867 20.0251 45.4661 20.2365 45.6251 20.4192C45.7841 20.5906 46.0338 20.7677 46.3745 20.9504C46.7151 21.1332 47.1636 21.356 47.7199 21.6187C48.3217 21.8929 48.8383 22.1899 49.2697 22.5097C49.7012 22.8296 50.0304 23.2066 50.2575 23.6407C50.4846 24.0633 50.5981 24.5945 50.5981 25.2342Z" fill="white"/>
<path d="M7.95129 0L0 8V16H7.95129L15.9026 8V0H7.95129Z" fill="white" fill-opacity="0.8"/>
<path d="M23.8539 0L15.9026 8V16H23.8539L31.8052 8V0H23.8539Z" fill="white" fill-opacity="0.4"/>
<path d="M23.8539 16L15.9026 24V32H23.8539L31.8052 24V16H23.8539Z" fill="white" fill-opacity="0.4"/>
<path d="M7.95129 16L0 24V32H7.95129L15.9026 24V16H7.95129Z" fill="white" fill-opacity="0.8"/>
</svg>
