<svg width="48" height="48" viewBox="0 0 48 48" fill="none" xmlns="http://www.w3.org/2000/svg">
<path d="M24 45.8666C36.0766 45.8666 45.8667 36.0766 45.8667 24C45.8667 11.9233 36.0766 2.1333 24 2.1333C11.9234 2.1333 2.13333 11.9233 2.13333 24C2.13333 36.0766 11.9234 45.8666 24 45.8666Z" fill="white"/>
<path d="M31.2533 20.96V17.76C31.2533 13.76 28 10.5066 24 10.5066C20 10.5066 16.7467 13.76 16.7467 17.76V20.96H14.6133V37.44H33.3333V20.96H31.2533ZM19.52 20.96V17.76C19.52 15.3066 21.5467 13.28 24 13.28C26.4533 13.28 28.48 15.3066 28.48 17.76V20.96H19.52Z" fill="#729FCA"/>
<path d="M33.3867 37.4933H24V23.84L33.3867 20.96V37.4933Z" fill="#B5CCE3"/>
<path d="M24 23.84L14.6133 20.96H33.3867L24 23.84Z" fill="white"/>
<path d="M24 1.86664C11.7867 1.86664 1.86667 11.7866 1.86667 24C1.86667 36.2133 11.7867 46.1333 24 46.1333C36.2133 46.1333 46.1333 36.2133 46.1333 24C46.1333 11.7866 36.2133 1.86664 24 1.86664ZM24 45.6C12.1067 45.6 2.4 35.8933 2.4 24C2.4 12.1066 12.1067 2.39997 24 2.39997C35.8933 2.39997 45.6 12.1066 45.6 24C45.6 35.8933 35.8933 45.6 24 45.6Z" fill="#35618D"/>
<path d="M33.6533 20.96C33.6 20.9066 33.6533 20.9066 33.6533 20.96C33.6 20.9066 33.6 20.9066 33.6533 20.96C33.6533 20.9066 33.6533 20.9066 33.6533 20.9066C33.6533 20.9066 33.6533 20.8533 33.6 20.8533C33.6 20.8533 33.6 20.8533 33.6 20.8C33.5467 20.7466 33.4933 20.7466 33.44 20.7466H31.5733V17.8133C31.5733 13.6533 28.2133 10.2933 24.0533 10.2933C19.8933 10.2933 16.5333 13.6533 16.5333 17.8133V20.7466H14.6667C14.6133 20.7466 14.6133 20.7466 14.56 20.7466C14.56 20.7466 14.56 20.7466 14.5067 20.7466C14.5067 20.7466 14.4533 20.7466 14.4533 20.8C14.4533 20.8 14.4533 20.8 14.4533 20.8533C14.4533 20.8533 14.4533 20.9066 14.4 20.9066V20.96C14.4 20.96 14.4 20.96 14.4 21.0133V37.4933C14.4 37.6533 14.5067 37.76 14.6667 37.76H33.3867C33.5467 37.76 33.6533 37.6533 33.6533 37.4933V20.96ZM17.0133 17.76C17.0133 13.92 20.16 10.7733 24 10.7733C27.84 10.7733 30.9867 13.92 30.9867 17.76V20.6933H30.88H28.7467V17.76C28.7467 15.1466 26.6133 13.0133 24 13.0133C21.3867 13.0133 19.2533 15.1466 19.2533 17.76V20.6933H17.0133V17.76ZM28.2133 17.76V20.6933H19.7867V17.76C19.7867 15.4133 21.6533 13.5466 24 13.5466C26.3467 13.5466 28.2133 15.4666 28.2133 17.76ZM23.7333 37.2266H14.88V21.3333L23.7333 24V37.2266ZM16.4267 21.2266H29.76H31.5733L24 23.5733L16.4267 21.2266ZM33.12 37.2266H24.2667V24.0533L33.12 21.3866V37.2266Z" fill="#35618D"/>
</svg>
