<svg width="48" height="48" viewBox="0 0 48 48" fill="none" xmlns="http://www.w3.org/2000/svg">
<path d="M45.8667 24C45.8667 36.0533 36.0533 45.8666 24 45.8666C11.9467 45.8666 2.13333 36.0533 2.13333 24C2.13333 11.9466 11.9467 2.1333 24 2.1333C36.0533 2.1333 45.8667 11.9466 45.8667 24Z" fill="white"/>
<path d="M19.52 28.16C18.9867 28 18.5067 27.68 18.1867 27.2L16.5333 31.4133C16.3733 31.7866 16.2133 32.1066 16 32.3733C17.12 32.64 17.9733 33.6 17.9733 34.8266V34.88C18.6133 34.24 19.0933 33.44 19.4667 32.5333L21.28 28C20.6933 28.2666 20.1067 28.32 19.52 28.16Z" fill="#729FCA"/>
<path d="M12.9067 34.88C12.9067 34.56 12.96 34.2933 13.0667 34.0266C12.96 34.0266 12.8 34.08 12.6933 34.08H4.58667C5.17334 35.1466 5.81334 36.2133 6.50667 37.1733H12.7467C13.2267 37.1733 13.7067 37.12 14.1333 37.0133C13.44 36.5333 12.9067 35.7333 12.9067 34.88Z" fill="#729FCA"/>
<path d="M11.4667 10.4L9.22668 18.1333L30.2934 24.16C32.1067 24.6933 33.9734 24.5333 35.6267 23.84C37.2267 23.1466 38.56 21.9733 39.4134 20.48C39.7334 19.9466 40 19.36 40.16 18.72L11.4667 10.4ZM14.72 15.4666C14.56 15.9466 14.0267 16.2666 13.5467 16.1066C13.0134 16 12.7467 15.4666 12.8534 14.9333C13.0134 14.4533 13.5467 14.1333 14.0267 14.2933C14.56 14.4533 14.8267 14.9866 14.72 15.4666ZM17.8134 16.3733C17.6534 16.8533 17.12 17.1733 16.64 17.0133C16.16 16.8533 15.84 16.32 16 15.84C16.16 15.36 16.6934 15.04 17.1734 15.2C17.6534 15.3066 17.9734 15.84 17.8134 16.3733Z" fill="#729FCA"/>
<path d="M39.4133 20.4266C38.5066 21.9733 37.1733 23.1466 35.6266 23.7866L37.4933 24.32C38.6666 24.64 39.8933 23.9466 40.2666 22.7733C40.5333 21.8666 40.16 20.96 39.4133 20.4266Z" fill="#B5CCE3"/>
<path d="M18.1867 27.2533C18.5067 27.68 18.9333 28.0533 19.52 28.2133C20.1067 28.3733 20.6933 28.32 21.2267 28.0533C21.8667 27.7866 22.4 27.2 22.6133 26.4533L17.8133 25.0666C17.5467 25.8666 17.76 26.6133 18.1867 27.2533Z" fill="#B5CCE3"/>
<path d="M15.9466 32.4266C15.7866 32.3733 15.5733 32.3733 15.4133 32.3733C14.3466 32.3733 13.44 33.0666 13.0666 34.0266C12.96 34.2933 12.9066 34.56 12.9066 34.88C12.9066 35.7866 13.3866 36.5866 14.1333 37.0133C14.5066 37.2266 14.9333 37.3866 15.4133 37.3866C16.8 37.3866 17.8666 36.2666 17.92 34.9333V34.88C17.92 33.6533 17.12 32.64 15.9466 32.4266Z" fill="#B5CCE3"/>
<path d="M10.9333 18.56L13.3333 23.7866L17.8133 25.0666L22.6133 26.4533L27.84 27.9466L29.0133 23.7333L10.9333 18.56Z" fill="#B5CCE3"/>
<path d="M14.0267 14.2933C13.5467 14.1333 13.0133 14.4533 12.8533 14.9333C12.6933 15.4133 13.0133 15.9466 13.4933 16.1066C13.9733 16.2666 14.5067 15.9466 14.6667 15.4666C14.8267 14.9866 14.56 14.4533 14.0267 14.2933Z" fill="#B5CCE3"/>
<path d="M17.1733 15.2C16.6933 15.04 16.16 15.36 16 15.84C15.84 16.32 16.16 16.8533 16.64 17.0133C17.12 17.1733 17.6533 16.8533 17.8133 16.3733C17.9733 15.84 17.6533 15.3066 17.1733 15.2Z" fill="#B5CCE3"/>
<path d="M17.2267 14.9333C16.9067 14.8266 16.5867 14.88 16.32 15.04C16.0533 15.2 15.84 15.4666 15.7333 15.7866C15.5733 16.4266 15.9467 17.12 16.5867 17.28C16.6933 17.3333 16.8 17.3333 16.9067 17.3333C17.44 17.3333 17.92 16.96 18.08 16.4266C18.1867 16.1066 18.1333 15.7866 17.9733 15.52C17.8133 15.2533 17.5467 15.04 17.2267 14.9333ZM17.5467 16.2666C17.44 16.64 17.0667 16.8533 16.6933 16.7466C16.32 16.64 16.1067 16.2666 16.2133 15.8933C16.2667 15.7333 16.3733 15.5733 16.5333 15.4666C16.64 15.4133 16.7467 15.36 16.8533 15.36C16.9067 15.36 16.96 15.36 17.0667 15.36C17.2267 15.4133 17.3867 15.52 17.4933 15.68C17.6 15.84 17.6 16.1066 17.5467 16.2666Z" fill="#35618D"/>
<path d="M14.1333 14.0266C13.4933 13.8666 12.8 14.24 12.64 14.88C12.5333 15.2 12.5867 15.52 12.7467 15.7866C12.9067 16.0533 13.1733 16.2666 13.4933 16.3733C13.6 16.4266 13.7067 16.4266 13.8133 16.4266C14.3467 16.4266 14.8267 16.0533 14.9867 15.52C15.1467 14.88 14.7733 14.24 14.1333 14.0266ZM14.4533 15.4133C14.3467 15.7866 13.9733 16 13.6 15.8933C13.44 15.84 13.28 15.7333 13.1733 15.5733C13.0667 15.4133 13.0667 15.2533 13.12 15.04C13.2267 14.72 13.4933 14.56 13.76 14.56C13.8133 14.56 13.8667 14.56 13.9733 14.56C14.3467 14.6666 14.56 15.04 14.4533 15.4133Z" fill="#35618D"/>
<path d="M24 1.86664C11.7867 1.86664 1.86667 11.7866 1.86667 24C1.86667 36.2133 11.7867 46.1333 24 46.1333C36.2133 46.1333 46.1333 36.2133 46.1333 24C46.1333 11.7866 36.2133 1.86664 24 1.86664ZM6.29334 36.3733C6.18667 36.2133 6.08 36.1066 5.97333 35.9466C5.86667 35.7866 5.76 35.5733 5.6 35.4133C5.44 35.0933 5.22667 34.8266 5.06667 34.5066C5.01334 34.4533 5.01334 34.4 4.96 34.3466H12.6933V34.4V34.4533C12.6933 34.6133 12.64 34.72 12.64 34.88C12.64 35.04 12.64 35.2 12.6933 35.36C12.6933 35.4133 12.6933 35.4133 12.6933 35.4666C12.7467 35.6266 12.7467 35.7866 12.8533 35.9466V36C12.9067 36.1066 12.96 36.2666 13.0667 36.3733C13.0667 36.4266 13.12 36.4266 13.12 36.48C13.2267 36.5866 13.3333 36.7466 13.44 36.8533C13.1733 36.9066 12.9067 36.9066 12.6933 36.9066H6.66667C6.50667 36.6933 6.4 36.5333 6.29334 36.3733ZM36.9067 23.4133C36.96 23.36 37.0133 23.36 37.0667 23.3066C37.1733 23.2 37.3333 23.1466 37.44 23.04C37.4933 22.9866 37.5467 22.9333 37.6 22.9333C37.7067 22.8266 37.8133 22.7733 37.92 22.6666C37.9733 22.6133 38.0267 22.56 38.08 22.5066C38.1867 22.4 38.2933 22.2933 38.4 22.1866C38.4533 22.1333 38.4533 22.1333 38.5067 22.08C38.6667 21.92 38.7733 21.76 38.9333 21.6C38.9867 21.5466 38.9867 21.5466 39.04 21.4933C39.1467 21.3866 39.2533 21.2266 39.3067 21.12C39.36 21.0666 39.4133 21.0133 39.4133 20.96C39.4667 20.9066 39.52 20.8533 39.52 20.8C40 21.28 40.2133 22.0266 40 22.72C39.84 23.2 39.52 23.6266 39.0933 23.8933C38.6133 24.16 38.1333 24.2133 37.6 24.0533L36.3733 23.68C36.5333 23.6266 36.6933 23.52 36.9067 23.4133ZM39.2 20.2666C38.3467 21.7066 37.0667 22.88 35.52 23.52C33.8667 24.2133 32.1067 24.32 30.4 23.84L29.12 23.4666L25.44 22.4L9.6 17.92L11.6267 10.72L39.84 18.7733C39.68 19.3066 39.4667 19.7866 39.2 20.2666ZM28.6933 23.9466L27.6267 27.6266L13.4933 23.5733L11.36 18.9866L28.6933 23.9466ZM17.9733 25.3866L22.24 26.6133C22.0267 27.1466 21.6 27.52 21.12 27.7866C20.64 28 20.1067 28.0533 19.5733 27.8933C19.0933 27.7333 18.6667 27.4666 18.4 27.04C18.0267 26.56 17.92 25.9733 17.9733 25.3866ZM18.2933 27.7333C18.4 27.84 18.5067 27.9466 18.6133 28C18.6667 28 18.6667 28.0533 18.72 28.0533C18.8267 28.1066 18.88 28.16 18.9867 28.2133C19.04 28.2133 19.04 28.2666 19.0933 28.2666C19.2 28.32 19.36 28.3733 19.4667 28.4266C19.5733 28.48 19.68 28.48 19.84 28.48C19.8933 28.48 19.9467 28.48 20 28.48C20.0533 28.48 20.16 28.48 20.2133 28.48H20.2667C20.32 28.48 20.3733 28.48 20.48 28.48H20.5333C20.64 28.48 20.7467 28.48 20.8533 28.4266L19.2533 32.4266C18.9867 33.0666 18.6667 33.6533 18.24 34.1866C18.24 34.08 18.1867 33.9733 18.1333 33.8666C18.08 33.76 18.0267 33.6 17.9733 33.4933C17.9733 33.44 17.92 33.44 17.92 33.3866C17.8667 33.28 17.8133 33.2266 17.76 33.12C17.76 33.0666 17.7067 33.0666 17.7067 33.0133C17.6 32.9066 17.5467 32.8 17.44 32.6933C17.44 32.6933 17.44 32.6933 17.3867 32.6933C17.28 32.5866 17.1733 32.5333 17.0667 32.48C17.0133 32.48 17.0133 32.4266 16.96 32.4266C16.8533 32.3733 16.8 32.32 16.6933 32.2666C16.64 32.2666 16.64 32.2133 16.5867 32.2133H16.5333C16.6933 32 16.8 31.7333 16.9067 31.4666L18.2933 27.7333ZM17.6533 34.8266V34.88C17.6533 36.1066 16.64 37.0666 15.4133 37.0666C14.9867 37.0666 14.6133 36.96 14.24 36.7466C13.5467 36.32 13.1733 35.6266 13.1733 34.8266C13.1733 34.56 13.2267 34.3466 13.3333 34.08C13.6533 33.2266 14.5067 32.5866 15.4133 32.5866C15.5733 32.5866 15.7333 32.5866 15.8933 32.64C16.9067 32.9066 17.6533 33.8133 17.6533 34.8266ZM24 45.6C17.12 45.6 11.04 42.4 7.09334 37.3866H12.7467C13.1733 37.3866 13.6533 37.3333 14.1333 37.28C14.56 37.4933 15.04 37.6533 15.4667 37.6533C16.9067 37.6533 18.1333 36.48 18.24 35.04C18.88 34.3466 19.36 33.5466 19.7333 32.6933L21.4933 28.2666C22.1333 27.9466 22.56 27.4666 22.8267 26.8266L27.7867 28.2666H27.84C27.8933 28.2666 27.9467 28.2666 27.9467 28.2133C28 28.16 28.0533 28.1066 28.0533 28.0533L29.1733 24.1066L30.24 24.4266C30.9867 24.64 31.7333 24.7466 32.48 24.7466C33.5467 24.7466 34.6133 24.5333 35.6267 24.1066L37.44 24.64C37.6533 24.6933 37.92 24.7466 38.1333 24.7466C38.56 24.7466 38.9867 24.64 39.36 24.4266C39.9467 24.1066 40.3733 23.5733 40.5333 22.9333C40.8 22.0266 40.48 21.0133 39.7867 20.4266C40.0533 19.8933 40.32 19.36 40.48 18.7733C40.48 18.72 40.48 18.6133 40.48 18.56C40.4267 18.5066 40.3733 18.4533 40.32 18.4533L11.52 10.1866C11.36 10.1333 11.2533 10.24 11.2 10.3466L9.01333 18.0266C9.01333 18.08 9.01333 18.1866 9.01333 18.24C9.06667 18.2933 9.12 18.3466 9.17334 18.3466L10.72 18.7733L13.0667 23.8933C13.12 23.9466 13.1733 24 13.2267 24.0533L17.44 25.28C17.3333 25.9733 17.44 26.6666 17.8667 27.2533L16.2667 31.3066C16.16 31.5733 16 31.84 15.84 32.1066C15.68 32.1066 15.5733 32.0533 15.4133 32.0533C14.3467 32.0533 13.3333 32.6933 12.9067 33.7066C12.8533 33.7066 12.8 33.7066 12.6933 33.7066H4.69334C3.25334 30.8266 2.4 27.52 2.4 24C2.4 12.1066 12.1067 2.39997 24 2.39997C35.8933 2.39997 45.6 12.1066 45.6 24C45.6 35.8933 35.8933 45.6 24 45.6Z" fill="#35618D"/>
</svg>
