<svg width="48" height="48" viewBox="0 0 48 48" fill="none" xmlns="http://www.w3.org/2000/svg">
<path d="M24 45.6C12.1067 45.6 2.39999 35.8933 2.39999 24C2.39999 12.1066 12.1067 2.39996 24 2.39996C35.8933 2.39996 45.6 12.1066 45.6 24C45.6 35.8933 35.8933 45.6 24 45.6Z" fill="#729FCA"/>
<path d="M24 45.8666C36.0766 45.8666 45.8667 36.0766 45.8667 24C45.8667 11.9233 36.0766 2.1333 24 2.1333C11.9234 2.1333 2.13333 11.9233 2.13333 24C2.13333 36.0766 11.9234 45.8666 24 45.8666Z" fill="white"/>
<path d="M2.13333 24C2.13333 26.2933 2.50666 28.5333 3.14666 30.6133H18.5067V18.1866V10.88V10.4H6.88C3.89333 14.1333 2.13333 18.88 2.13333 24Z" fill="#B5CCE3"/>
<path d="M31.4667 31.6266C29.8667 31.6266 28.5333 32.96 28.5333 34.56C28.5333 36.16 29.8667 37.4933 31.4667 37.4933C33.0667 37.4933 34.4 36.16 34.4 34.56C34.4 32.96 33.12 31.6266 31.4667 31.6266ZM31.4667 36.16C30.56 36.16 29.8667 35.4666 29.8667 34.56C29.8667 33.6533 30.56 32.96 31.4667 32.96C32.3733 32.96 33.0667 33.6533 33.0667 34.56C33.0667 35.4666 32.3733 36.16 31.4667 36.16Z" fill="#B5CCE3"/>
<path d="M31.4667 36.16C32.3503 36.16 33.0667 35.4436 33.0667 34.56C33.0667 33.6763 32.3503 32.96 31.4667 32.96C30.583 32.96 29.8667 33.6763 29.8667 34.56C29.8667 35.4436 30.583 36.16 31.4667 36.16Z" fill="#729FCA"/>
<path d="M39.0933 30.6133H38.7733H34.08C35.4133 31.4666 36.2667 32.9066 36.2667 34.6133H38.2933C38.4533 34.6133 38.56 34.56 38.6667 34.5066L39.4133 34.0266C39.6267 33.92 39.7333 33.7066 39.7333 33.44V31.2533C39.68 30.88 39.4133 30.6133 39.0933 30.6133Z" fill="#729FCA"/>
<path d="M24.7467 18.08C24.96 17.8133 25.0133 17.4933 24.96 17.12L24.4267 14.08C24.3733 13.8133 24.2133 13.5466 24 13.3333C22.0267 11.68 20.2133 10.7733 18.5067 10.8266V18.1333L23.6267 18.56C24.0533 18.6666 24.48 18.4533 24.7467 18.08Z" fill="#729FCA"/>
<path d="M36 28.5333C36.0533 28.6399 36.16 28.6933 36.32 28.6933L37.76 28.8533C38.08 28.9066 38.2933 28.5866 38.24 28.3199L38.0267 27.5199C37.9733 27.3599 37.8667 27.2533 37.76 27.1999L35.5733 26.5599C35.2 26.4533 34.88 26.8799 35.0933 27.1999L36 28.5333Z" fill="#729FCA"/>
<path d="M28.96 30.6133H18.9333H18.56H3.14667L4.32 33.6L18.88 34.6133H26.7733C26.7733 32.9066 27.68 31.4666 28.96 30.6133Z" fill="#729FCA"/>
<path d="M29.76 23.2V24.64V25.1733C29.76 25.3333 29.8667 25.44 30.08 25.44H30.3467C30.4533 25.44 30.5067 25.3866 30.56 25.3333C30.6133 25.28 30.6133 25.2266 30.6133 25.12V23.4666V23.2533C30.6133 23.0933 30.5067 22.9333 30.2933 22.9333H30.0267H29.9733C29.8667 22.9333 29.76 23.04 29.76 23.2Z" fill="#729FCA"/>
<path d="M31.4667 31.36C29.7067 31.36 28.2667 32.8 28.2667 34.56C28.2667 36.32 29.7067 37.76 31.4667 37.76C33.2267 37.76 34.6667 36.32 34.6667 34.56C34.6667 32.8 33.28 31.36 31.4667 31.36ZM31.4667 37.2267C29.9733 37.2267 28.8 36.0533 28.8 34.56C28.8 33.0667 29.9733 31.8933 31.4667 31.8933C32.96 31.8933 34.1333 33.0667 34.1333 34.56C34.1333 36.0533 32.96 37.2267 31.4667 37.2267Z" fill="#35618D"/>
<path d="M31.4667 32.6933C30.4533 32.6933 29.6 33.5466 29.6 34.56C29.6 35.5733 30.4533 36.4266 31.4667 36.4266C32.48 36.4266 33.3333 35.5733 33.3333 34.56C33.3333 33.5466 32.5333 32.6933 31.4667 32.6933ZM31.4667 35.8933C30.72 35.8933 30.1333 35.3066 30.1333 34.56C30.1333 33.8133 30.72 33.2266 31.4667 33.2266C32.2133 33.2266 32.8 33.8133 32.8 34.56C32.8 35.3066 32.2133 35.8933 31.4667 35.8933Z" fill="#35618D"/>
<path d="M24 1.86664C11.7867 1.86664 1.86667 11.7866 1.86667 24C1.86667 36.2133 11.7867 46.1333 24 46.1333C36.2133 46.1333 46.1333 36.2133 46.1333 24C46.1333 11.7866 36.2133 1.86664 24 1.86664ZM3.36 30.3466C2.72 28.32 2.4 26.1866 2.4 24C2.4 18.9866 4.10667 14.3466 6.98667 10.6666H18.24V30.2933H3.46667H3.36V30.3466ZM3.52 30.88H18.5067H28.16C27.1467 31.7866 26.56 33.0133 26.5067 34.3466H18.88L4.48 33.3333C4.10667 32.5333 3.78667 31.68 3.52 30.88ZM22.72 18.9866C24.2667 19.2 25.7067 19.7866 26.88 20.7466L29.5467 22.88V22.9333V22.9866C29.5467 23.04 29.4933 23.0933 29.4933 23.1466V24L26.2933 21.0133C25.44 20.2133 24.4267 19.7333 23.3067 19.52C22.72 19.4133 22.0267 19.36 21.3333 19.36C21.0667 19.36 20.8533 19.4666 20.64 19.6266C20.48 19.84 20.3733 20.0533 20.4267 20.32L20.8533 24.2133C20.8533 24.3733 20.9067 24.48 21.0133 24.64C21.6533 25.5466 23.2533 25.92 24.9067 26.2933L25.12 26.3466C25.1733 26.3466 25.1733 26.3466 25.2267 26.3466L31.4667 27.0933C31.68 27.0933 31.8933 26.9866 32 26.7733C32.1067 26.56 32.0533 26.3466 31.8933 26.1866L30.9333 25.3333C30.9333 25.28 30.9333 25.2266 30.9333 25.2266V24L31.1467 24.2133C31.9467 24.8533 32.9067 25.3333 33.9733 25.5466L35.8933 25.9733C36.48 26.1333 37.0133 26.4 37.44 26.8266L35.5733 26.24C35.3067 26.1333 34.9867 26.24 34.8267 26.5066C34.6667 26.7733 34.6667 27.04 34.8267 27.3066L35.7867 28.64C35.8933 28.8 36.0533 28.9066 36.2667 28.9066L37.7067 29.0666C37.92 29.0666 38.1333 29.0133 38.2933 28.8533L38.3467 28.8L38.4533 30.2933H34.1333C32.5333 29.3333 30.4533 29.3333 28.9067 30.2933H18.7733V18.4533L22.72 18.9866ZM18.7733 17.92V11.1466C20.2667 11.2 21.9733 12 23.7867 13.6C23.9467 13.76 24.0533 13.9733 24.1067 14.1866L24.64 17.2266C24.6933 17.4933 24.64 17.76 24.48 17.9733C24.2667 18.24 23.9467 18.4 23.6267 18.4L18.7733 17.92ZM30.0267 25.1733V24.64V23.2H30.3467V25.2266L30.0267 25.1733ZM37.6 27.4666C37.6533 27.4666 37.7067 27.52 37.7067 27.5733L37.92 28.3733C37.92 28.4266 37.92 28.48 37.8667 28.5333C37.8667 28.5333 37.8133 28.5866 37.7067 28.5866L36.2667 28.4266C36.2133 28.4266 36.16 28.3733 36.16 28.3733L35.2 27.04C35.1467 26.9333 35.2 26.88 35.2 26.88C35.2 26.8266 35.2533 26.7733 35.36 26.8266L37.6 27.4666ZM38.7733 30.88H39.0933C39.3067 30.88 39.4667 31.04 39.4667 31.2533V33.44C39.4667 33.6 39.4133 33.7066 39.3067 33.8133L38.56 34.2933C38.5067 34.3466 38.4 34.3466 38.2933 34.3466H36.5333C36.48 33.0133 35.84 31.7866 34.88 30.88H38.7733ZM24 45.6C17.6 45.6 11.84 42.7733 7.89334 38.3466H38.56C38.72 38.3466 38.8267 38.24 38.8267 38.08C38.8267 37.92 38.72 37.8133 38.56 37.8133H7.41333C6.4 36.5866 5.49334 35.2533 4.74667 33.8666L18.88 34.88H26.7733C26.9333 34.88 27.04 34.7733 27.04 34.6133C27.04 33.12 27.7867 31.7333 29.0667 30.88C30.5067 29.9733 32.4267 29.92 33.8667 30.8266C33.8667 30.8266 33.8667 30.8266 33.92 30.8266C35.2 31.68 36 33.0666 36 34.6133C36 34.7733 36.1067 34.88 36.2667 34.88H38.2933C38.5067 34.88 38.6667 34.8266 38.8267 34.72L39.5733 34.24C39.84 34.08 40 33.76 40 33.44V31.2533C40 30.7733 39.5733 30.3466 39.0933 30.3466H39.04L38.88 28.8C38.7733 27.2 37.6 25.8666 36 25.4933L34.08 25.0666C33.12 24.8533 32.2667 24.4266 31.4667 23.84L30.9333 23.3066V23.2C30.9333 22.88 30.6667 22.6666 30.4 22.6666H30.1333L27.3067 20.3733C26.4 19.68 25.3867 19.1466 24.32 18.7733C24.5867 18.6666 24.8533 18.5066 25.0667 18.24C25.28 17.92 25.3867 17.4933 25.3333 17.12L24.8 14.08C24.7467 13.76 24.5333 13.44 24.2667 13.1733C22.3467 11.52 20.5333 10.6666 18.88 10.6133V10.4C18.88 10.24 18.7733 10.1333 18.6133 10.1333H7.41333C11.4133 5.43997 17.3333 2.39997 24 2.39997C35.8933 2.39997 45.6 12.1066 45.6 24C45.6 35.8933 35.8933 45.6 24 45.6Z" fill="#35618D"/>
</svg>
